<svg id="visual" viewBox="0 0 900 600" width="900" height="600" xmlns="http://www.w3.org/2000/svg" xmlns:xlink="http://www.w3.org/1999/xlink" version="1.1"><path d="M0 133L82 133L82 121L164 121L164 79L245 79L245 181L327 181L327 115L409 115L409 151L491 151L491 151L573 151L573 109L655 109L655 103L736 103L736 145L818 145L818 103L900 103L900 97L900 0L900 0L818 0L818 0L736 0L736 0L655 0L655 0L573 0L573 0L491 0L491 0L409 0L409 0L327 0L327 0L245 0L245 0L164 0L164 0L82 0L82 0L0 0Z" fill="#fa7268"></path><path d="M0 373L82 373L82 307L164 307L164 277L245 277L245 307L327 307L327 229L409 229L409 313L491 313L491 337L573 337L573 247L655 247L655 295L736 295L736 343L818 343L818 229L900 229L900 343L900 95L900 101L818 101L818 143L736 143L736 101L655 101L655 107L573 107L573 149L491 149L491 149L409 149L409 113L327 113L327 179L245 179L245 77L164 77L164 119L82 119L82 131L0 131Z" fill="#ea5e66"></path><path d="M0 469L82 469L82 439L164 439L164 451L245 451L245 499L327 499L327 433L409 433L409 505L491 505L491 505L573 505L573 451L655 451L655 451L736 451L736 481L818 481L818 403L900 403L900 439L900 341L900 227L818 227L818 341L736 341L736 293L655 293L655 245L573 245L573 335L491 335L491 311L409 311L409 227L327 227L327 305L245 305L245 275L164 275L164 305L82 305L82 371L0 371Z" fill="#d84a64"></path><path d="M0 511L82 511L82 565L164 565L164 565L245 565L245 541L327 541L327 541L409 541L409 547L491 547L491 559L573 559L573 517L655 517L655 553L736 553L736 535L818 535L818 505L900 505L900 529L900 437L900 401L818 401L818 479L736 479L736 449L655 449L655 449L573 449L573 503L491 503L491 503L409 503L409 431L327 431L327 497L245 497L245 449L164 449L164 437L82 437L82 467L0 467Z" fill="#c53762"></path><path d="M0 601L82 601L82 601L164 601L164 601L245 601L245 601L327 601L327 601L409 601L409 601L491 601L491 601L573 601L573 601L655 601L655 601L736 601L736 601L818 601L818 601L900 601L900 601L900 527L900 503L818 503L818 533L736 533L736 551L655 551L655 515L573 515L573 557L491 557L491 545L409 545L409 539L327 539L327 539L245 539L245 563L164 563L164 563L82 563L82 509L0 509Z" fill="#b0235f"></path></svg>