<svg id="visual" viewBox="0 0 900 600" width="900" height="600" xmlns="http://www.w3.org/2000/svg" xmlns:xlink="http://www.w3.org/1999/xlink" version="1.1"><g stroke-width="1" stroke-linejoin="bevel"><path d="M476 323L515 398L610 373Z" fill="#0c2435" stroke="#0c2435"></path><path d="M610 373L623 260L476 323Z" fill="#19435d" stroke="#19435d"></path><path d="M623 260L510 224L476 323Z" fill="#297ea6" stroke="#297ea6"></path><path d="M610 373L702 271L623 260Z" fill="#112e42" stroke="#112e42"></path><path d="M623 260L580 161L510 224Z" fill="#297ea6" stroke="#297ea6"></path><path d="M510 224L387 267L476 323Z" fill="#246688" stroke="#246688"></path><path d="M476 323L365 364L515 398Z" fill="#297ea6" stroke="#297ea6"></path><path d="M675 167L580 161L623 260Z" fill="#246688" stroke="#246688"></path><path d="M510 224L383 188L387 267Z" fill="#277297" stroke="#277297"></path><path d="M387 267L365 364L476 323Z" fill="#19435d" stroke="#19435d"></path><path d="M583 527L709 438L610 373Z" fill="#00101c" stroke="#00101c"></path><path d="M610 373L709 438L702 271Z" fill="#00101c" stroke="#00101c"></path><path d="M493 524L583 527L515 398Z" fill="#277297" stroke="#277297"></path><path d="M515 398L583 527L610 373Z" fill="#1d4e6b" stroke="#1d4e6b"></path><path d="M363 470L493 524L515 398Z" fill="#19435d" stroke="#19435d"></path><path d="M702 271L675 167L623 260Z" fill="#0c2435" stroke="#0c2435"></path><path d="M709 438L765 311L702 271Z" fill="#112e42" stroke="#112e42"></path><path d="M702 271L770 166L675 167Z" fill="#081a28" stroke="#081a28"></path><path d="M381 116L383 188L510 224Z" fill="#297ea6" stroke="#297ea6"></path><path d="M387 267L308 265L365 364Z" fill="#0c2435" stroke="#0c2435"></path><path d="M827 535L767 401L709 438Z" fill="#15384f" stroke="#15384f"></path><path d="M709 438L767 401L765 311Z" fill="#0c2435" stroke="#0c2435"></path><path d="M365 364L363 470L515 398Z" fill="#277297" stroke="#277297"></path><path d="M583 527L683 528L709 438Z" fill="#297ea6" stroke="#297ea6"></path><path d="M383 188L308 265L387 267Z" fill="#246688" stroke="#246688"></path><path d="M365 364L278 428L363 470Z" fill="#081a28" stroke="#081a28"></path><path d="M622 85L529 78L580 161Z" fill="#19435d" stroke="#19435d"></path><path d="M580 161L529 78L510 224Z" fill="#081a28" stroke="#081a28"></path><path d="M675 167L622 85L580 161Z" fill="#0c2435" stroke="#0c2435"></path><path d="M381 600L509 600L493 524Z" fill="#1d4e6b" stroke="#1d4e6b"></path><path d="M493 524L509 600L583 527Z" fill="#19435d" stroke="#19435d"></path><path d="M583 527L600 600L683 528Z" fill="#277297" stroke="#277297"></path><path d="M383 188L328 177L308 265Z" fill="#15384f" stroke="#15384f"></path><path d="M381 116L328 177L383 188Z" fill="#297ea6" stroke="#297ea6"></path><path d="M509 600L600 600L583 527Z" fill="#246688" stroke="#246688"></path><path d="M529 78L381 116L510 224Z" fill="#00101c" stroke="#00101c"></path><path d="M765 311L770 166L702 271Z" fill="#0c2435" stroke="#0c2435"></path><path d="M675 167L722 76L622 85Z" fill="#081a28" stroke="#081a28"></path><path d="M797 100L770 166L900 181Z" fill="#081a28" stroke="#081a28"></path><path d="M308 265L278 428L365 364Z" fill="#0c2435" stroke="#0c2435"></path><path d="M363 470L381 600L493 524Z" fill="#297ea6" stroke="#297ea6"></path><path d="M278 428L310 520L363 470Z" fill="#081a28" stroke="#081a28"></path><path d="M770 166L722 76L675 167Z" fill="#0c2435" stroke="#0c2435"></path><path d="M622 85L605 0L529 78Z" fill="#0c2435" stroke="#0c2435"></path><path d="M310 520L381 600L363 470Z" fill="#297ea6" stroke="#297ea6"></path><path d="M683 528L827 535L709 438Z" fill="#19435d" stroke="#19435d"></path><path d="M600 600L722 600L683 528Z" fill="#246688" stroke="#246688"></path><path d="M720 0L605 0L622 85Z" fill="#297ea6" stroke="#297ea6"></path><path d="M529 78L462 0L381 116Z" fill="#297ea6" stroke="#297ea6"></path><path d="M770 166L797 100L722 76Z" fill="#205a7a" stroke="#205a7a"></path><path d="M722 76L720 0L622 85Z" fill="#205a7a" stroke="#205a7a"></path><path d="M900 181L770 166L765 311Z" fill="#0c2435" stroke="#0c2435"></path><path d="M328 177L228 212L308 265Z" fill="#277297" stroke="#277297"></path><path d="M308 265L203 408L278 428Z" fill="#246688" stroke="#246688"></path><path d="M297 71L228 212L328 177Z" fill="#246688" stroke="#246688"></path><path d="M605 0L462 0L529 78Z" fill="#277297" stroke="#277297"></path><path d="M381 116L297 71L328 177Z" fill="#19435d" stroke="#19435d"></path><path d="M722 600L827 535L683 528Z" fill="#246688" stroke="#246688"></path><path d="M900 379L900 327L765 311Z" fill="#246688" stroke="#246688"></path><path d="M900 379L765 311L767 401Z" fill="#297ea6" stroke="#297ea6"></path><path d="M278 428L205 489L310 520Z" fill="#081a28" stroke="#081a28"></path><path d="M310 520L305 600L381 600Z" fill="#205a7a" stroke="#205a7a"></path><path d="M193 269L203 408L308 265Z" fill="#112e42" stroke="#112e42"></path><path d="M827 535L900 379L767 401Z" fill="#19435d" stroke="#19435d"></path><path d="M462 0L417 0L381 116Z" fill="#1d4e6b" stroke="#1d4e6b"></path><path d="M228 212L193 269L308 265Z" fill="#1d4e6b" stroke="#1d4e6b"></path><path d="M194 600L305 600L310 520Z" fill="#112e42" stroke="#112e42"></path><path d="M323 0L297 71L381 116Z" fill="#00101c" stroke="#00101c"></path><path d="M228 212L123 221L193 269Z" fill="#297ea6" stroke="#297ea6"></path><path d="M722 600L797 600L827 535Z" fill="#277297" stroke="#277297"></path><path d="M827 535L900 534L900 379Z" fill="#112e42" stroke="#112e42"></path><path d="M796 0L720 0L722 76Z" fill="#297ea6" stroke="#297ea6"></path><path d="M82 476L205 489L203 408Z" fill="#297ea6" stroke="#297ea6"></path><path d="M203 408L205 489L278 428Z" fill="#081a28" stroke="#081a28"></path><path d="M900 327L900 181L765 311Z" fill="#297ea6" stroke="#297ea6"></path><path d="M797 100L796 0L722 76Z" fill="#00101c" stroke="#00101c"></path><path d="M417 0L323 0L381 116Z" fill="#246688" stroke="#246688"></path><path d="M297 71L209 65L228 212Z" fill="#0c2435" stroke="#0c2435"></path><path d="M900 600L900 534L827 535Z" fill="#19435d" stroke="#19435d"></path><path d="M900 0L796 0L797 100Z" fill="#19435d" stroke="#19435d"></path><path d="M900 181L900 105L797 100Z" fill="#112e42" stroke="#112e42"></path><path d="M204 0L209 65L297 71Z" fill="#246688" stroke="#246688"></path><path d="M209 65L123 221L228 212Z" fill="#19435d" stroke="#19435d"></path><path d="M193 269L109 291L203 408Z" fill="#081a28" stroke="#081a28"></path><path d="M797 600L900 600L827 535Z" fill="#081a28" stroke="#081a28"></path><path d="M123 221L109 291L193 269Z" fill="#205a7a" stroke="#205a7a"></path><path d="M130 600L194 600L205 489Z" fill="#00101c" stroke="#00101c"></path><path d="M205 489L194 600L310 520Z" fill="#297ea6" stroke="#297ea6"></path><path d="M109 291L82 363L203 408Z" fill="#081a28" stroke="#081a28"></path><path d="M0 333L82 363L109 291Z" fill="#277297" stroke="#277297"></path><path d="M323 0L204 0L297 71Z" fill="#0c2435" stroke="#0c2435"></path><path d="M209 65L85 116L123 221Z" fill="#205a7a" stroke="#205a7a"></path><path d="M900 105L900 0L797 100Z" fill="#297ea6" stroke="#297ea6"></path><path d="M82 363L82 476L203 408Z" fill="#15384f" stroke="#15384f"></path><path d="M82 476L130 600L205 489Z" fill="#1d4e6b" stroke="#1d4e6b"></path><path d="M108 0L85 116L209 65Z" fill="#1d4e6b" stroke="#1d4e6b"></path><path d="M0 167L0 333L109 291Z" fill="#19435d" stroke="#19435d"></path><path d="M82 363L0 428L82 476Z" fill="#277297" stroke="#277297"></path><path d="M82 476L0 600L130 600Z" fill="#19435d" stroke="#19435d"></path><path d="M0 167L109 291L123 221Z" fill="#112e42" stroke="#112e42"></path><path d="M204 0L108 0L209 65Z" fill="#00101c" stroke="#00101c"></path><path d="M85 116L0 167L123 221Z" fill="#246688" stroke="#246688"></path><path d="M0 333L0 428L82 363Z" fill="#297ea6" stroke="#297ea6"></path><path d="M0 129L0 167L85 116Z" fill="#19435d" stroke="#19435d"></path><path d="M0 428L0 499L82 476Z" fill="#297ea6" stroke="#297ea6"></path><path d="M0 0L0 129L85 116Z" fill="#1d4e6b" stroke="#1d4e6b"></path><path d="M0 499L0 600L82 476Z" fill="#277297" stroke="#277297"></path><path d="M108 0L0 0L85 116Z" fill="#205a7a" stroke="#205a7a"></path></g></svg>