<svg id="visual" viewBox="0 0 900 600" width="900" height="600" xmlns="http://www.w3.org/2000/svg" xmlns:xlink="http://www.w3.org/1999/xlink" version="1.1"><path d="M0 151L82 127L164 265L245 205L327 139L409 121L491 103L573 181L655 289L736 139L818 85L900 229L900 0L818 0L736 0L655 0L573 0L491 0L409 0L327 0L245 0L164 0L82 0L0 0Z" fill="#00cc8e"></path><path d="M0 199L82 247L164 343L245 301L327 247L409 217L491 217L573 277L655 367L736 181L818 205L900 307L900 227L818 83L736 137L655 287L573 179L491 101L409 119L327 137L245 203L164 263L82 125L0 149Z" fill="#00b98a"></path><path d="M0 433L82 415L164 457L245 409L327 397L409 421L491 403L573 379L655 457L736 391L818 397L900 439L900 305L818 203L736 179L655 365L573 275L491 215L409 215L327 245L245 299L164 341L82 245L0 197Z" fill="#00a784"></path><path d="M0 511L82 535L164 535L245 553L327 547L409 505L491 523L573 535L655 535L736 511L818 517L900 547L900 437L818 395L736 389L655 455L573 377L491 401L409 419L327 395L245 407L164 455L82 413L0 431Z" fill="#00957c"></path><path d="M0 601L82 601L164 601L245 601L327 601L409 601L491 601L573 601L655 601L736 601L818 601L900 601L900 545L818 515L736 509L655 533L573 533L491 521L409 503L327 545L245 551L164 533L82 533L0 509Z" fill="#038373"></path></svg>